<svg viewBox="0 0 19 16" xmlns="http://www.w3.org/2000/svg"><path fill="white" d="M12.4453 0.00830078L15.2549 4.87505H18.25V6.62505H17.2289L16.5665 14.5727C16.5483 14.7913 16.4486 14.9952 16.2872 15.1438C16.1258 15.2924 15.9144 15.3749 15.695 15.3751H3.305C3.08559 15.3749 2.87423 15.2924 2.71282 15.1438C2.5514 14.9952 2.45171 14.7913 2.4335 14.5727L1.77025 6.62505H0.75V4.87505H3.74425L6.55475 0.00830078L8.07025 0.883301L5.7655 4.87505H13.2336L10.9297 0.883301L12.4453 0.00830078ZM15.4727 6.62505H3.52637L4.11 13.6251H14.8891L15.4727 6.62505ZM10.375 8.37505V11.8751H8.625V8.37505H10.375ZM6.875 8.37505V11.8751H5.125V8.37505H6.875ZM13.875 8.37505V11.8751H12.125V8.37505H13.875Z"></path></svg>