<svg viewBox="0 0 60 60" xmlns="http://www.w3.org/2000/svg"><path d="M52.9883 12.8558C52.9141 12.3671 52.4942 12.0063 52.0002 12.0058H42.9505C42.4379 5.23373 36.7935 0 30.0019 0C23.2102 0 17.5659 5.23373 17.0533 12.0058H8.00557C7.51149 12.0063 7.09211 12.3671 7.0179 12.8558L0.0187585 58.8502C-0.0251815 59.1382 0.0587926 59.4307 0.248711 59.6519C0.438629 59.8725 0.71545 60 1.00643 60H58.9993C59.2908 60 59.5671 59.8725 59.757 59.6519C59.9469 59.4307 60.0309 59.1382 59.9875 58.8502L52.9883 12.8558ZM30.0029 2.00708C35.6858 2.01489 40.4293 6.34688 40.9507 12.0058H19.053C19.5745 6.3459 24.319 2.01342 30.0029 2.00708ZM2.17035 58.0002L8.86972 14.0056H51.1414L57.8408 58.0002H2.17035Z"></path> <path d="M44.0012 17.0057C44.0012 16.4536 43.5535 16.0059 43.0013 16.0059H11.0052C10.4531 16.0059 10.0054 16.4536 10.0054 17.0057C10.0054 17.5579 10.4531 18.0056 11.0052 18.0056H43.0013C43.5535 18.0056 44.0012 17.5579 44.0012 17.0057Z"></path> <path d="M49.0006 16.0059H47.0009C46.4487 16.0059 46.001 16.4536 46.001 17.0057C46.001 17.5579 46.4487 18.0056 47.0009 18.0056H49.0006C49.5528 18.0056 50.0005 17.5579 50.0005 17.0057C50.0005 16.4536 49.5528 16.0059 49.0006 16.0059Z"></path> <path d="M43.0014 20.0039C41.605 20 40.3913 20.9628 40.0779 22.3239C39.7644 23.6851 40.4343 25.0819 41.6915 25.6893C40.4426 31.1388 35.5941 35.0026 30.0029 35.0026C24.4123 35.0026 19.5633 31.1388 18.3144 25.6893C19.6224 25.0482 20.279 23.5591 19.8699 22.1614C19.4608 20.7636 18.1045 19.8633 16.6574 20.0288C15.2103 20.1943 14.0928 21.3773 14.0098 22.8317C13.9268 24.2856 14.9028 25.5882 16.3215 25.9173C17.6915 32.3798 23.3968 37.0028 30.0029 37.0028C36.6091 37.0028 42.3144 32.3798 43.6844 25.9173C45.1534 25.5579 46.125 24.1616 45.9517 22.6594C45.7784 21.1571 44.5134 20.0191 43.0014 20.0039ZM17.0045 22.0037C17.5567 22.0037 18.0044 22.4514 18.0044 23.0035C18.0044 23.5557 17.5567 24.0034 17.0045 24.0034C16.4524 24.0034 16.0047 23.5557 16.0047 23.0035C16.0047 22.4514 16.4524 22.0037 17.0045 22.0037ZM43.0014 24.0034C42.4492 24.0034 42.0015 23.5557 42.0015 23.0035C42.0015 22.4514 42.4492 22.0037 43.0014 22.0037C43.5535 22.0037 44.0012 22.4514 44.0012 23.0035C44.0012 23.5557 43.5535 24.0034 43.0014 24.0034Z"></path></svg>