<svg viewBox="0 0 31 30" xmlns="http://www.w3.org/2000/svg"><path fill="#BFDED4" fill-rule="evenodd" clip-rule="evenodd" d="M20.1804 1.5V2.73206C20.1804 6.56226 23.2854 9.66726 27.1156 9.66726V13.046C24.4454 13.046 22.012 12.0312 20.1804 10.3663V20.6501H16.8017V1.5H20.1804ZM7.86 20.6503C7.86 18.1811 9.86176 16.1793 12.331 16.1793V12.8006C7.99574 12.8006 4.48129 16.315 4.48129 20.6503C4.48129 24.9856 7.99574 28.5 12.331 28.5C16.6664 28.5 20.1804 24.9853 20.1804 20.6501H16.8017C16.8017 23.1194 14.8003 25.1213 12.331 25.1213C9.86176 25.1213 7.86 23.1196 7.86 20.6503Z"></path></svg>